<?xml version="1.0" standalone="no"?><!DOCTYPE svg PUBLIC "-//W3C//DTD SVG 1.1//EN" "http://www.w3.org/Graphics/SVG/1.1/DTD/svg11.dtd"><svg width="200" height="200" viewBox="0 0 200 200" version="1.1" xmlns="http://www.w3.org/2000/svg" xmlns:xlink="http://www.w3.org/1999/xlink"><defs><style type="text/css"><![CDATA[
@font-face { font-family: ifont; src: url(http://at.alicdn.com/t/font_1442373896_4754455.eot?#iefix) format(embedded-opentype), url(http://at.alicdn.com/t/font_1442373896_4754455.woff) format(woff), url(http://at.alicdn.com/t/font_1442373896_4754455.ttf) format(truetype), url(http://at.alicdn.com/t/font_1442373896_4754455.svg#ifont) format(svg); }

]]></style></defs><g class="transform-group"><g transform="scale(0.1953125, 0.1953125)"><path d="M512.000512 102.677521c-226.056526 0-409.322479 183.247534-409.322479 409.322479 0 226.074945 183.265954 409.322479 409.322479 409.322479 226.055502 0 409.322479-183.247534 409.322479-409.322479C921.322991 285.925055 738.056014 102.677521 512.000512 102.677521zM375.826086 559.453778c4.815679 4.548596 21.832238 25.924439 34.414811 25.924439 12.904914 0 80.136132-71.740928 109.221564-103.929024l137.27755-158.825308c4.530177-4.815679 8.070816-7.909134 15.208377-8.127098 7.138584-0.229221 16.522302 2.474354 21.337981 6.995321l44.275389 43.703361c4.815679 4.54041 7.918343 10.916631 8.147564 18.035772 0.208754 7.157004-2.475378 13.70514-7.005554 18.520819L488.910631 665.742547l0.36225 0.342808-53.125965 56.533574c-4.530177 4.815679-10.906397 7.899924-18.044982 8.127098-7.138584 0.24764-13.685697-2.454912-18.520819-6.985088L248.787738 582.047356c-4.815679-4.510734-7.918343-10.887978-8.128121-18.025539-0.209778-7.157004 2.474354-13.70514 7.023974-18.539238l35.405371-37.689391c4.530177-4.796236 10.92584-7.918343 18.044982-8.127098 7.138584-0.209778 13.70514 2.474354 18.501376 6.985088L375.826086 559.453778z" fill="#2aa515"></path></g></g></svg>