<?xml version="1.0" standalone="no"?><!DOCTYPE svg PUBLIC "-//W3C//DTD SVG 1.1//EN" "http://www.w3.org/Graphics/SVG/1.1/DTD/svg11.dtd"><svg width="200" height="200" viewBox="0 0 200 200" version="1.1" xmlns="http://www.w3.org/2000/svg" xmlns:xlink="http://www.w3.org/1999/xlink"><defs><style type="text/css"><![CDATA[
@font-face { font-family: ifont; src: url(http://at.alicdn.com/t/font_1442373896_4754455.eot?#iefix) format(embedded-opentype), url(http://at.alicdn.com/t/font_1442373896_4754455.woff) format(woff), url(http://at.alicdn.com/t/font_1442373896_4754455.ttf) format(truetype), url(http://at.alicdn.com/t/font_1442373896_4754455.svg#ifont) format(svg); }

]]></style></defs><g class="transform-group"><g transform="scale(0.1953125, 0.1953125)"><path d="M490.896565 42.685741C219.768471 42.685741 0 262.455718 0 533.582306c0 271.125082 219.768471 490.890541 490.896565 490.890541 271.125082 0 490.890541-219.765459 490.890541-490.890541C981.787106 262.455718 762.021647 42.685741 490.896565 42.685741zM705.198682 681.481035l-66.404894 66.404894c-6.668047 6.668047-17.477271 6.668047-24.145318 0l-123.756424-123.754918-123.753412 123.754918c-6.668047 6.666541-17.477271 6.666541-24.146824-0.001506l-66.4064-66.4064c-6.666541-6.668047-6.666541-17.477271 0-24.145318l123.754918-123.753412-123.753412-123.753412c-6.668047-6.668047-6.668047-17.478776-0.001506-24.146824l66.404894-66.403388c6.668047-6.669553 17.478776-6.668047 24.148329 0l123.753412 123.753412 123.753412-123.753412c6.669553-6.668047 17.478776-6.668047 24.146824 0l66.404894 66.404894c6.669553 6.669553 6.669553 17.478776 0.001506 24.148329l-123.754918 123.753412 123.754918 123.754918C711.866729 664.003765 711.866729 674.812988 705.198682 681.481035z" fill="#eb4f38"></path></g></g></svg>